# 3ds Max Wavefront OBJ Exporter v0.97b - (c)2007 guruware
# 创建的文件:19.12.2019 10:29:03

mtllib fang.mtl

#
# object 
#

v  0.0000 57.0000 -57.0000
v  0.0000 0.0000 -57.0000
v  0.0000 57.0000 -0.0000
v  0.0000 0.0000 -0.0000
v  57.0000 57.0000 -57.0000
v  57.0000 57.0000 -0.0000
v  57.0000 0.0000 -57.0000
v  57.0000 0.0000 -0.0000
# 8 vertices

vn -1.0000 0.0000 -0.0000
vn 0.0000 1.0000 -0.0000
vn 1.0000 0.0000 -0.0000
vn 0.0000 -1.0000 -0.0000
vn 0.0000 0.0000 -1.0000
vn 0.0000 0.0000 1.0000
# 6 vertex normals

g 方形
usemtl wire_225143087
s 1
f 1//1 2//1 3//1 
f 3//1 2//1 4//1 
s 2
f 5//2 1//2 6//2 
f 6//2 1//2 3//2 
s 1
f 7//3 5//3 8//3 
f 8//3 5//3 6//3 
s 2
f 2//4 7//4 4//4 
f 4//4 7//4 8//4 
s 4
f 5//5 7//5 1//5 
f 1//5 7//5 2//5 
f 8//6 6//6 4//6 
f 4//6 6//6 3//6 
# 0 polygons - 12 triangles

