# Created using Spin 3D

# Vertex Array
v -57.000 57.000 -57.000
v -57.000 57.000 0.000
v -57.000 0.000 -57.000
v -57.000 0.000 0.000
v 0.000 57.000 -57.000
v 0.000 0.000 -57.000
v 0.000 57.000 0.000
v 0.000 0.000 0.000

# Normal Array
vn -1.000 0.000 0.000
vn -1.000 0.000 0.000
vn -0.000 -0.000 -1.000
vn 0.000 0.000 -1.000
vn 1.000 0.000 0.000
vn 1.000 0.000 0.000
vn 0.000 -0.000 1.000
vn 0.000 -0.000 1.000
vn 0.000 1.000 -0.000
vn 0.000 1.000 0.000
vn -0.000 -1.000 -0.000
vn 0.000 -1.000 -0.000

# Facets
f 1//1 3//1 2//1
f 3//2 4//2 2//2
f 5//3 6//3 1//3
f 6//4 3//4 1//4
f 7//5 8//5 5//5
f 8//6 6//6 5//6
f 2//7 4//7 7//7
f 4//8 8//8 7//8
f 5//9 1//9 7//9
f 1//10 2//10 7//10
f 8//11 4//11 6//11
f 4//12 3//12 6//12

# Thank you for using Spin 3D

