# Created using Spin 3D

# Vertex Array
v -150.000 150.000 -150.000
v -350.000 150.000 -150.000
v -309.257 150.000 -199.356
v -350.000 150.000 -350.000
v -250.000 150.000 -341.987
v -150.000 150.000 -350.000
v -196.255 150.000 -199.356
v -350.000 100.000 -150.000
v -397.802 100.000 -115.261
v -420.043 100.000 -144.714
v -446.595 100.000 -286.750
v -436.494 100.000 -322.248
v -350.000 100.000 -350.000
v -420.043 100.000 -355.286
v -129.473 100.000 -90.397
v -160.852 100.000 -70.967
v -150.000 100.000 -150.000
v -397.802 100.000 -384.739
v -370.527 100.000 -409.603
v -339.148 100.000 -429.033
v -150.000 100.000 -350.000
v -195.267 100.000 -442.365
v -160.852 100.000 -429.033
v -436.494 100.000 -177.752
v -446.595 100.000 -213.250
v -450.000 100.000 -250.000
v -304.733 100.000 -57.635
v -339.148 100.000 -70.967
v -370.527 100.000 -90.397
v -53.405 100.000 -213.250
v -63.506 100.000 -177.752
v -304.733 100.000 -442.365
v -268.454 100.000 -449.147
v -231.546 100.000 -449.147
v -129.473 100.000 -409.603
v -102.198 100.000 -384.739
v -79.957 100.000 -355.286
v -195.267 100.000 -57.635
v -231.546 100.000 -50.853
v -268.454 100.000 -50.853
v -63.506 100.000 -322.248
v -53.405 100.000 -286.750
v -50.000 100.000 -250.000
v -79.957 100.000 -144.714
v -102.198 100.000 -115.261
v 0.000 0.000 -250.000
v -3.410 50.000 -291.149
v -3.410 0.000 -291.149
v -13.546 50.000 -331.175
v -13.546 0.000 -331.175
v -30.132 50.000 -368.987
v -30.132 0.000 -368.987
v -52.715 50.000 -403.553
v -52.715 0.000 -403.553
v -80.680 50.000 -433.931
v -80.680 0.000 -433.931
v -113.263 50.000 -459.292
v -113.263 0.000 -459.292
v -149.576 50.000 -478.943
v -149.576 0.000 -478.943
v -188.629 50.000 -492.350
v -188.629 0.000 -492.350
v -229.355 50.000 -499.146
v -229.355 0.000 -499.146
v -270.645 50.000 -499.146
v -270.645 0.000 -499.146
v -311.371 50.000 -492.350
v -311.371 0.000 -492.350
v -350.424 50.000 -478.943
v -350.424 0.000 -478.943
v -386.737 50.000 -459.292
v -386.737 0.000 -459.292
v -419.320 50.000 -433.931
v -419.320 0.000 -433.931
v -447.285 50.000 -403.553
v -447.285 0.000 -403.553
v -469.868 50.000 -368.987
v -469.868 0.000 -368.987
v -486.454 50.000 -331.175
v -486.454 0.000 -331.175
v -496.590 50.000 -291.149
v -496.590 0.000 -291.149
v -500.000 50.000 -250.000
v -500.000 0.000 -250.000
v -496.590 50.000 -208.851
v -496.590 0.000 -208.851
v -486.454 50.000 -168.825
v -486.454 0.000 -168.825
v -469.868 50.000 -131.013
v -469.868 0.000 -131.013
v -447.285 50.000 -96.447
v -447.285 0.000 -96.447
v -419.320 50.000 -66.069
v -419.320 0.000 -66.069
v -386.737 50.000 -40.708
v -386.737 0.000 -40.708
v -350.424 50.000 -21.057
v -350.424 0.000 -21.057
v -311.371 50.000 -7.650
v -311.371 0.000 -7.650
v -270.645 50.000 -0.854
v -270.645 0.000 -0.854
v -229.355 50.000 -0.854
v -229.355 0.000 -0.854
v -188.629 50.000 -7.650
v -188.629 0.000 -7.650
v -149.576 50.000 -21.057
v -149.576 0.000 -21.057
v -113.263 50.000 -40.708
v -113.263 0.000 -40.708
v -80.680 50.000 -66.069
v -80.680 0.000 -66.069
v -52.715 50.000 -96.447
v -52.715 0.000 -96.447
v -30.132 50.000 -131.013
v -30.132 0.000 -131.013
v -13.546 50.000 -168.825
v -13.546 0.000 -168.825
v -3.410 50.000 -208.851
v -3.410 0.000 -208.851
v 0.000 50.000 -250.000
v -102.198 50.000 -115.261
v -129.473 50.000 -90.397
v -160.852 50.000 -70.967
v -195.267 50.000 -57.635
v -231.546 50.000 -50.853
v -268.454 50.000 -50.853
v -304.733 50.000 -57.635
v -339.148 50.000 -70.967
v -370.527 50.000 -90.397
v -129.473 50.000 -409.603
v -102.198 50.000 -384.739
v -79.957 50.000 -355.286
v -63.506 50.000 -322.248
v -53.405 50.000 -286.750
v -50.000 50.000 -250.000
v -53.405 50.000 -213.250
v -63.506 50.000 -177.752
v -79.957 50.000 -144.714
v -397.802 50.000 -115.261
v -420.043 50.000 -144.714
v -436.494 50.000 -177.752
v -446.595 50.000 -213.250
v -450.000 50.000 -250.000
v -446.595 50.000 -286.750
v -436.494 50.000 -322.248
v -420.043 50.000 -355.286
v -397.802 50.000 -384.739
v -370.527 50.000 -409.603
v -339.148 50.000 -429.033
v -304.733 50.000 -442.365
v -268.454 50.000 -449.147
v -231.546 50.000 -449.147
v -195.267 50.000 -442.365
v -160.852 50.000 -429.033
v -250.000 0.000 -250.000
v -309.257 250.000 -199.356
v -196.255 250.000 -199.356
v -250.000 250.000 -341.987

# Normal Array
vn 0.000 1.000 0.000
vn 0.000 1.000 0.000
vn 0.000 1.000 0.000
vn 0.000 1.000 0.000
vn -0.000 1.000 0.000
vn -0.000 1.000 0.000
vn 0.000 1.000 -0.000
vn 0.000 1.000 0.000
vn 0.000 1.000 0.000
vn 0.000 1.000 0.000
vn 0.000 1.000 0.000
vn -0.000 1.000 0.000
vn 0.000 1.000 0.000
vn 0.000 1.000 0.000
vn 0.000 1.000 0.000
vn 0.000 1.000 0.000
vn 0.000 1.000 0.000
vn -0.000 1.000 0.000
vn -0.000 1.000 0.000
vn -0.000 1.000 -0.000
vn 0.000 1.000 0.000
vn 0.000 1.000 -0.000
vn 0.000 1.000 0.000
vn 0.000 1.000 0.000
vn -0.000 1.000 -0.000
vn 0.000 1.000 0.000
vn -0.000 1.000 0.000
vn 0.000 1.000 0.000
vn 0.000 1.000 0.000
vn 0.000 1.000 0.000
vn 0.000 1.000 0.000
vn 0.000 1.000 0.000
vn 0.000 1.000 0.000
vn 0.000 1.000 0.000
vn 0.000 1.000 0.000
vn 0.000 1.000 0.000
vn 0.000 1.000 0.000
vn 0.000 1.000 -0.000
vn -0.000 1.000 0.000
vn 0.000 1.000 0.000
vn 0.000 1.000 0.000
vn 0.000 1.000 0.000
vn 0.000 1.000 0.000
vn 0.000 1.000 0.000
vn 0.000 1.000 0.000
vn 0.997 0.000 -0.083
vn 0.969 0.000 -0.245
vn 0.969 0.000 -0.245
vn 0.916 0.000 -0.402
vn 0.916 0.000 -0.402
vn 0.837 0.000 -0.547
vn 0.837 0.000 -0.547
vn 0.736 0.000 -0.677
vn 0.736 0.000 -0.677
vn 0.614 0.000 -0.789
vn 0.614 0.000 -0.789
vn 0.476 0.000 -0.879
vn 0.476 0.000 -0.879
vn 0.325 0.000 -0.946
vn 0.325 0.000 -0.946
vn 0.165 0.000 -0.986
vn 0.165 0.000 -0.986
vn 0.000 0.000 -1.000
vn 0.000 0.000 -1.000
vn -0.165 0.000 -0.986
vn -0.165 0.000 -0.986
vn -0.325 0.000 -0.946
vn -0.325 0.000 -0.946
vn -0.476 0.000 -0.879
vn -0.476 0.000 -0.879
vn -0.614 0.000 -0.789
vn -0.614 0.000 -0.789
vn -0.736 0.000 -0.677
vn -0.736 0.000 -0.677
vn -0.837 0.000 -0.547
vn -0.837 0.000 -0.547
vn -0.916 0.000 -0.402
vn -0.916 0.000 -0.402
vn -0.969 0.000 -0.245
vn -0.969 0.000 -0.245
vn -0.997 0.000 -0.083
vn -0.997 0.000 -0.083
vn -0.997 0.000 0.083
vn -0.997 0.000 0.083
vn -0.969 0.000 0.245
vn -0.969 0.000 0.245
vn -0.916 0.000 0.402
vn -0.916 0.000 0.402
vn -0.837 0.000 0.547
vn -0.837 0.000 0.547
vn -0.736 0.000 0.677
vn -0.736 0.000 0.677
vn -0.614 0.000 0.789
vn -0.614 0.000 0.789
vn -0.476 0.000 0.879
vn -0.476 0.000 0.879
vn -0.325 0.000 0.946
vn -0.325 -0.000 0.946
vn -0.165 -0.000 0.986
vn -0.165 -0.000 0.986
vn 0.000 -0.000 1.000
vn 0.000 -0.000 1.000
vn 0.165 -0.000 0.986
vn 0.165 -0.000 0.986
vn 0.325 -0.000 0.946
vn 0.325 0.000 0.946
vn 0.476 -0.000 0.879
vn 0.476 0.000 0.879
vn 0.614 -0.000 0.789
vn 0.614 0.000 0.789
vn 0.736 -0.000 0.677
vn 0.736 0.000 0.677
vn 0.837 -0.000 0.547
vn 0.837 0.000 0.547
vn 0.916 -0.000 0.402
vn 0.916 0.000 0.402
vn 0.969 -0.000 0.245
vn 0.969 0.000 0.245
vn 0.997 -0.000 0.083
vn 0.997 0.000 0.083
vn 0.997 0.000 -0.083
vn 0.000 1.000 -0.000
vn 0.000 1.000 0.000
vn 0.000 1.000 -0.000
vn 0.000 1.000 0.000
vn 0.000 1.000 -0.000
vn 0.000 1.000 0.000
vn 0.000 1.000 -0.000
vn 0.000 1.000 0.000
vn 0.000 1.000 -0.000
vn 0.000 1.000 -0.000
vn 0.000 1.000 0.000
vn 0.000 1.000 -0.000
vn 0.000 1.000 0.000
vn 0.000 1.000 -0.000
vn 0.000 1.000 0.000
vn -0.000 1.000 0.000
vn 0.000 1.000 0.000
vn -0.000 1.000 0.000
vn 0.000 1.000 0.000
vn -0.000 1.000 0.000
vn 0.000 1.000 0.000
vn -0.000 1.000 0.000
vn 0.000 1.000 0.000
vn -0.000 1.000 0.000
vn -0.000 1.000 0.000
vn 0.000 1.000 -0.000
vn -0.000 1.000 0.000
vn 0.000 1.000 -0.000
vn -0.000 1.000 0.000
vn -0.000 1.000 0.000
vn -0.000 1.000 0.000
vn 0.000 1.000 -0.000
vn -0.000 1.000 0.000
vn 0.000 1.000 0.000
vn 0.000 1.000 0.000
vn 0.000 1.000 0.000
vn 0.000 1.000 0.000
vn 0.000 1.000 0.000
vn 0.000 1.000 0.000
vn 0.000 1.000 0.000
vn 0.000 1.000 0.000
vn 0.000 1.000 0.000
vn 0.000 1.000 0.000
vn 0.000 1.000 0.000
vn 0.000 1.000 0.000
vn 0.000 1.000 0.000
vn 0.000 1.000 0.000
vn 0.000 1.000 0.000
vn 0.000 1.000 0.000
vn 0.000 1.000 0.000
vn 0.000 1.000 0.000
vn 0.000 1.000 0.000
vn 0.000 1.000 0.000
vn 0.000 1.000 0.000
vn 0.000 1.000 0.000
vn 0.000 1.000 0.000
vn 0.000 1.000 0.000
vn 0.000 1.000 0.000
vn 0.000 1.000 0.000
vn 0.000 1.000 0.000
vn -0.000 1.000 0.000
vn 0.000 1.000 0.000
vn 0.000 1.000 0.000
vn -0.000 1.000 0.000
vn 0.000 1.000 0.000
vn -0.000 1.000 0.000
vn -0.000 1.000 0.000
vn -0.000 1.000 0.000
vn 0.000 1.000 0.000
vn -0.000 1.000 0.000
vn 0.000 1.000 0.000
vn 0.000 1.000 0.000
vn 0.000 -1.000 -0.000
vn 0.000 -1.000 -0.000
vn 0.000 -1.000 -0.000
vn 0.000 -1.000 -0.000
vn 0.000 -1.000 -0.000
vn -0.000 -1.000 -0.000
vn -0.000 -1.000 -0.000
vn -0.000 -1.000 -0.000
vn -0.000 -1.000 -0.000
vn 0.000 -1.000 -0.000
vn -0.000 -1.000 -0.000
vn 0.000 -1.000 -0.000
vn 0.000 -1.000 -0.000
vn -0.000 -1.000 -0.000
vn -0.000 -1.000 -0.000
vn 0.000 -1.000 -0.000
vn 0.000 -1.000 -0.000
vn -0.000 -1.000 -0.000
vn -0.000 -1.000 -0.000
vn -0.000 -1.000 -0.000
vn -0.000 -1.000 -0.000
vn -0.000 -1.000 -0.000
vn 0.000 -1.000 -0.000
vn -0.000 -1.000 -0.000
vn -0.000 -1.000 -0.000
vn 0.000 -1.000 -0.000
vn 0.000 -1.000 -0.000
vn 0.000 -1.000 -0.000
vn 0.000 -1.000 -0.000
vn 0.000 -1.000 -0.000
vn 0.000 -1.000 -0.000
vn 0.000 -1.000 -0.000
vn -0.000 -1.000 -0.000
vn 0.000 -1.000 -0.000
vn -0.000 -1.000 -0.000
vn 0.000 -1.000 -0.000
vn 0.000 -1.000 -0.000
vn -0.000 -1.000 -0.000
vn 0.996 0.000 -0.092
vn 0.962 0.000 -0.274
vn 0.962 0.000 -0.274
vn 0.895 0.000 -0.446
vn 0.895 0.000 -0.446
vn 0.798 0.000 -0.603
vn 0.798 0.000 -0.603
vn 0.674 0.000 -0.739
vn 0.674 0.000 -0.739
vn 0.526 0.000 -0.850
vn 0.526 0.000 -0.850
vn 0.361 0.000 -0.932
vn 0.361 0.000 -0.932
vn 0.184 0.000 -0.983
vn 0.184 0.000 -0.983
vn 0.000 0.000 -1.000
vn 0.000 0.000 -1.000
vn -0.184 0.000 -0.983
vn -0.184 0.000 -0.983
vn -0.361 0.000 -0.932
vn -0.361 0.000 -0.932
vn -0.526 0.000 -0.850
vn -0.526 0.000 -0.850
vn -0.674 0.000 -0.739
vn -0.674 0.000 -0.739
vn -0.798 0.000 -0.603
vn -0.798 0.000 -0.603
vn -0.895 0.000 -0.446
vn -0.895 0.000 -0.446
vn -0.962 0.000 -0.274
vn -0.962 0.000 -0.274
vn -0.996 0.000 -0.092
vn -0.996 0.000 -0.092
vn -0.996 0.000 0.092
vn -0.996 0.000 0.092
vn -0.962 0.000 0.274
vn -0.962 0.000 0.274
vn -0.895 0.000 0.446
vn -0.895 0.000 0.446
vn -0.798 0.000 0.603
vn -0.798 0.000 0.603
vn -0.674 0.000 0.739
vn -0.674 0.000 0.739
vn -0.526 0.000 0.850
vn -0.526 0.000 0.850
vn -0.361 0.000 0.932
vn -0.361 0.000 0.932
vn -0.184 0.000 0.983
vn -0.184 0.000 0.983
vn 0.000 0.000 1.000
vn 0.000 0.000 1.000
vn 0.184 -0.000 0.983
vn 0.184 0.000 0.983
vn 0.361 -0.000 0.932
vn 0.361 0.000 0.932
vn 0.526 -0.000 0.850
vn 0.526 0.000 0.850
vn 0.674 -0.000 0.739
vn 0.674 0.000 0.739
vn 0.798 -0.000 0.603
vn 0.798 0.000 0.603
vn 0.895 -0.000 0.446
vn 0.895 0.000 0.446
vn 0.962 -0.000 0.274
vn 0.962 0.000 0.274
vn 0.996 -0.000 0.092
vn 0.996 0.000 0.092
vn 0.996 0.000 -0.092
vn -1.000 0.000 0.000
vn -1.000 0.000 0.000
vn -0.000 -0.000 -1.000
vn 0.000 0.000 -1.000
vn 1.000 0.000 0.000
vn 1.000 0.000 0.000
vn -0.000 0.000 1.000
vn 0.000 0.000 1.000
vn -0.000 0.000 1.000
vn 0.000 0.000 1.000
vn -0.923 -0.000 -0.384
vn -0.923 0.000 -0.384
vn 0.936 0.000 -0.353
vn 0.936 0.000 -0.353
vn -0.000 1.000 0.000

# Facets
f 1//1 3//1 2//1
f 3//2 4//2 2//2
f 3//3 5//3 4//3
f 5//4 6//4 4//4
f 5//5 7//5 6//5
f 7//6 1//6 6//6
f 7//7 3//7 1//7
f 8//8 10//8 9//8
f 11//9 13//9 12//9
f 13//10 14//10 12//10
f 15//11 17//11 16//11
f 14//12 13//12 18//12
f 13//13 19//13 18//13
f 13//14 20//14 19//14
f 21//15 23//15 22//15
f 10//16 8//16 24//16
f 8//17 25//17 24//17
f 8//18 13//18 25//18
f 13//19 26//19 25//19
f 13//20 11//20 26//20
f 27//21 8//21 28//21
f 8//22 29//22 28//22
f 8//23 9//23 29//23
f 17//24 31//24 30//24
f 20//25 13//25 32//25
f 13//26 33//26 32//26
f 13//27 21//27 33//27
f 21//28 34//28 33//28
f 21//29 22//29 34//29
f 23//30 21//30 35//30
f 21//31 36//31 35//31
f 21//32 37//32 36//32
f 16//33 17//33 38//33
f 17//34 39//34 38//34
f 17//35 8//35 39//35
f 8//36 40//36 39//36
f 8//37 27//37 40//37
f 37//38 21//38 41//38
f 21//39 42//39 41//39
f 21//40 17//40 42//40
f 17//41 43//41 42//41
f 17//42 30//42 43//42
f 31//43 17//43 44//43
f 17//44 45//44 44//44
f 17//45 15//45 45//45
f 46//46 48//46 47//46
f 48//47 49//47 47//47
f 48//48 50//48 49//48
f 50//49 51//49 49//49
f 50//50 52//50 51//50
f 52//51 53//51 51//51
f 52//52 54//52 53//52
f 54//53 55//53 53//53
f 54//54 56//54 55//54
f 56//55 57//55 55//55
f 56//56 58//56 57//56
f 58//57 59//57 57//57
f 58//58 60//58 59//58
f 60//59 61//59 59//59
f 60//60 62//60 61//60
f 62//61 63//61 61//61
f 62//62 64//62 63//62
f 64//63 65//63 63//63
f 64//64 66//64 65//64
f 66//65 67//65 65//65
f 66//66 68//66 67//66
f 68//67 69//67 67//67
f 68//68 70//68 69//68
f 70//69 71//69 69//69
f 70//70 72//70 71//70
f 72//71 73//71 71//71
f 72//72 74//72 73//72
f 74//73 75//73 73//73
f 74//74 76//74 75//74
f 76//75 77//75 75//75
f 76//76 78//76 77//76
f 78//77 79//77 77//77
f 78//78 80//78 79//78
f 80//79 81//79 79//79
f 80//80 82//80 81//80
f 82//81 83//81 81//81
f 82//82 84//82 83//82
f 84//83 85//83 83//83
f 84//84 86//84 85//84
f 86//85 87//85 85//85
f 86//86 88//86 87//86
f 88//87 89//87 87//87
f 88//88 90//88 89//88
f 90//89 91//89 89//89
f 90//90 92//90 91//90
f 92//91 93//91 91//91
f 92//92 94//92 93//92
f 94//93 95//93 93//93
f 94//94 96//94 95//94
f 96//95 97//95 95//95
f 96//96 98//96 97//96
f 98//97 99//97 97//97
f 98//98 100//98 99//98
f 100//99 101//99 99//99
f 100//100 102//100 101//100
f 102//101 103//101 101//101
f 102//102 104//102 103//102
f 104//103 105//103 103//103
f 104//104 106//104 105//104
f 106//105 107//105 105//105
f 106//106 108//106 107//106
f 108//107 109//107 107//107
f 108//108 110//108 109//108
f 110//109 111//109 109//109
f 110//110 112//110 111//110
f 112//111 113//111 111//111
f 112//112 114//112 113//112
f 114//113 115//113 113//113
f 114//114 116//114 115//114
f 116//115 117//115 115//115
f 116//116 118//116 117//116
f 118//117 119//117 117//117
f 118//118 120//118 119//118
f 120//119 121//119 119//119
f 120//120 46//120 121//120
f 46//121 47//121 121//121
f 122//122 123//122 111//122
f 123//123 109//123 111//123
f 123//124 124//124 109//124
f 124//125 107//125 109//125
f 124//126 125//126 107//126
f 125//127 105//127 107//127
f 125//128 126//128 105//128
f 126//129 103//129 105//129
f 126//130 127//130 103//130
f 127//131 101//131 103//131
f 127//132 128//132 101//132
f 128//133 99//133 101//133
f 128//134 129//134 99//134
f 129//135 97//135 99//135
f 129//136 130//136 97//136
f 131//137 132//137 55//137
f 132//138 53//138 55//138
f 132//139 133//139 53//139
f 133//140 51//140 53//140
f 133//141 134//141 51//141
f 134//142 49//142 51//142
f 134//143 135//143 49//143
f 135//144 47//144 49//144
f 135//145 136//145 47//145
f 136//146 121//146 47//146
f 136//147 137//147 121//147
f 137//148 119//148 121//148
f 137//149 138//149 119//149
f 138//150 117//150 119//150
f 138//151 139//151 117//151
f 139//152 115//152 117//152
f 139//153 122//153 115//153
f 122//154 113//154 115//154
f 122//155 111//155 113//155
f 97//156 130//156 95//156
f 130//157 93//157 95//157
f 130//158 140//158 93//158
f 140//159 91//159 93//159
f 140//160 141//160 91//160
f 141//161 89//161 91//161
f 141//162 142//162 89//162
f 142//163 87//163 89//163
f 142//164 143//164 87//164
f 143//165 85//165 87//165
f 143//166 144//166 85//166
f 144//167 83//167 85//167
f 144//168 145//168 83//168
f 145//169 81//169 83//169
f 145//170 146//170 81//170
f 146//171 79//171 81//171
f 146//172 147//172 79//172
f 147//173 77//173 79//173
f 147//174 148//174 77//174
f 77//175 148//175 75//175
f 148//176 73//176 75//176
f 148//177 149//177 73//177
f 149//178 71//178 73//178
f 149//179 150//179 71//179
f 150//180 69//180 71//180
f 150//181 151//181 69//181
f 151//182 67//182 69//182
f 151//183 152//183 67//183
f 152//184 65//184 67//184
f 152//185 153//185 65//185
f 153//186 63//186 65//186
f 153//187 154//187 63//187
f 154//188 61//188 63//188
f 154//189 155//189 61//189
f 155//190 59//190 61//190
f 155//191 131//191 59//191
f 131//192 57//192 59//192
f 131//193 55//193 57//193
f 84//194 156//194 86//194
f 84//195 82//195 156//195
f 76//196 156//196 78//196
f 156//197 80//197 78//197
f 156//198 82//198 80//198
f 70//199 156//199 72//199
f 156//200 74//200 72//200
f 156//201 76//201 74//201
f 64//202 156//202 66//202
f 156//203 68//203 66//203
f 156//204 70//204 68//204
f 58//205 156//205 60//205
f 156//206 62//206 60//206
f 156//207 64//207 62//207
f 52//208 156//208 54//208
f 156//209 56//209 54//209
f 156//210 58//210 56//210
f 46//211 156//211 48//211
f 156//212 50//212 48//212
f 156//213 52//213 50//213
f 116//214 156//214 118//214
f 156//215 120//215 118//215
f 156//216 46//216 120//216
f 110//217 156//217 112//217
f 156//218 114//218 112//218
f 156//219 116//219 114//219
f 104//220 156//220 106//220
f 156//221 108//221 106//221
f 156//222 110//222 108//222
f 98//223 156//223 100//223
f 156//224 102//224 100//224
f 156//225 104//225 102//225
f 92//226 156//226 94//226
f 156//227 96//227 94//227
f 156//228 98//228 96//228
f 86//229 156//229 88//229
f 156//230 90//230 88//230
f 156//231 92//231 90//231
f 136//232 135//232 42//232
f 135//233 41//233 42//233
f 135//234 134//234 41//234
f 134//235 37//235 41//235
f 134//236 133//236 37//236
f 133//237 36//237 37//237
f 133//238 132//238 36//238
f 132//239 35//239 36//239
f 132//240 131//240 35//240
f 131//241 23//241 35//241
f 131//242 155//242 23//242
f 155//243 22//243 23//243
f 155//244 154//244 22//244
f 154//245 34//245 22//245
f 154//246 153//246 34//246
f 153//247 33//247 34//247
f 153//248 152//248 33//248
f 152//249 32//249 33//249
f 152//250 151//250 32//250
f 151//251 20//251 32//251
f 151//252 150//252 20//252
f 150//253 19//253 20//253
f 150//254 149//254 19//254
f 149//255 18//255 19//255
f 149//256 148//256 18//256
f 148//257 14//257 18//257
f 148//258 147//258 14//258
f 147//259 12//259 14//259
f 147//260 146//260 12//260
f 146//261 11//261 12//261
f 146//262 145//262 11//262
f 145//263 26//263 11//263
f 145//264 144//264 26//264
f 144//265 25//265 26//265
f 144//266 143//266 25//266
f 143//267 24//267 25//267
f 143//268 142//268 24//268
f 142//269 10//269 24//269
f 142//270 141//270 10//270
f 141//271 9//271 10//271
f 141//272 140//272 9//272
f 140//273 29//273 9//273
f 140//274 130//274 29//274
f 130//275 28//275 29//275
f 130//276 129//276 28//276
f 129//277 27//277 28//277
f 129//278 128//278 27//278
f 128//279 40//279 27//279
f 128//280 127//280 40//280
f 127//281 39//281 40//281
f 127//282 126//282 39//282
f 126//283 38//283 39//283
f 126//284 125//284 38//284
f 125//285 16//285 38//285
f 125//286 124//286 16//286
f 124//287 15//287 16//287
f 124//288 123//288 15//288
f 123//289 45//289 15//289
f 123//290 122//290 45//290
f 122//291 44//291 45//291
f 122//292 139//292 44//292
f 139//293 31//293 44//293
f 139//294 138//294 31//294
f 138//295 30//295 31//295
f 138//296 137//296 30//296
f 137//297 43//297 30//297
f 137//298 136//298 43//298
f 136//299 42//299 43//299
f 4//300 13//300 2//300
f 13//301 8//301 2//301
f 6//302 21//302 4//302
f 21//303 13//303 4//303
f 1//304 17//304 6//304
f 17//305 21//305 6//305
f 2//306 8//306 1//306
f 8//307 17//307 1//307
f 157//308 3//308 158//308
f 3//309 7//309 158//309
f 159//310 5//310 157//310
f 5//311 3//311 157//311
f 158//312 7//312 159//312
f 7//313 5//313 159//313
f 157//314 158//314 159//314

# Thank you for using Spin 3D

